<svg width="12" height="7" viewBox="0 0 12 7" fill="none" xmlns="http://www.w3.org/2000/svg">
<path fill-rule="evenodd" clip-rule="evenodd" d="M1.90832 2.54768C2.72196 3.45173 3.96393 4.33206 5.73266 4.33206C7.50139 4.33206 8.74337 3.45173 9.55701 2.54768C9.9641 2.09536 10.2591 1.64175 10.4521 1.30119C10.5484 1.13129 10.6187 0.990584 10.6643 0.893702C10.6871 0.845292 10.7038 0.807917 10.7144 0.783417C10.7197 0.77117 10.7235 0.762149 10.7258 0.756587L10.7282 0.750868L10.7284 0.75026C10.7284 0.750381 10.7283 0.750516 11.0832 0.892454C11.438 1.03439 11.4379 1.03456 11.4379 1.03474L11.4377 1.03517L11.4372 1.03629L11.4359 1.03958L11.4315 1.05025C11.4278 1.05915 11.4226 1.07159 11.4157 1.08733C11.4021 1.11882 11.3821 1.16355 11.3557 1.21964C11.3028 1.33176 11.2238 1.48963 11.1171 1.67803C10.904 2.05405 10.578 2.55588 10.1251 3.05901C9.98537 3.21432 9.83304 3.3702 9.66783 3.52278L10.9712 4.82617L10.4307 5.36666L9.07414 4.01005C8.3038 4.56822 7.32446 5.00704 6.11484 5.08431L6.11485 6.62513L5.35049 6.62513L5.35048 5.08431C4.14086 5.00705 3.16153 4.56822 2.39119 4.01005L1.03459 5.36666L0.494112 4.82617L1.7975 3.52278C1.63229 3.37021 1.47996 3.21433 1.34018 3.05901C0.887364 2.55588 0.561325 2.05405 0.348245 1.67803C0.24149 1.48963 0.162492 1.33176 0.109635 1.21964C0.083192 1.16355 0.063248 1.11881 0.0496054 1.08733C0.0427828 1.07159 0.0375321 1.05915 0.0338288 1.05025L0.0294298 1.03958L0.0280939 1.03629L0.0276408 1.03516L0.0274679 1.03473C0.0273963 1.03455 0.0273306 1.03439 0.382174 0.892454C0.737018 0.750518 0.736964 0.750383 0.736916 0.750262L0.736848 0.750093L0.737164 0.75087L0.739524 0.756588C0.741839 0.762151 0.745639 0.771171 0.750946 0.783418C0.761562 0.807919 0.778194 0.845294 0.801016 0.893704C0.846688 0.990585 0.916978 1.13129 1.01325 1.30119C1.20624 1.64175 1.50123 2.09536 1.90832 2.54768ZM0.736816 0.750012C0.736803 0.749982 0.736814 0.750009 0.736848 0.750093L0.736816 0.750012Z" fill="#616161"/>
</svg>
